<?xml version="1.0" encoding="UTF-8"?>
<svg width="21px" height="19px" viewBox="0 0 21 19" version="1.1" xmlns="http://www.w3.org/2000/svg" xmlns:xlink="http://www.w3.org/1999/xlink">
    <!-- Generator: Sketch 47.1 (45422) - http://www.bohemiancoding.com/sketch -->
    <title>Shape</title>
    <desc>Created with Sketch.</desc>
    <defs></defs>
    <g id="SYMBOLS" stroke="none" stroke-width="1" fill="none" fill-rule="evenodd">
        <g id="Reaction" transform="translate(-234.000000, -10.000000)" fill-rule="nonzero" fill="#FF1C48">
            <g id="comment_button">
                <g transform="translate(163.000000, 0.000000)">
                    <path d="M88.2644356,28.3823529 C88.0505005,28.3823529 87.8398567,28.2988984 87.6826968,28.1426257 L83.8096493,24.2914439 L74.0879462,24.2914439 C72.8306663,24.2914439 71.8078921,23.2744439 71.8078921,22.024262 L71.8078921,12.6495348 C71.8078921,11.3993529 72.8306663,10.3823529 74.0879462,10.3823529 L89.2756902,10.3823529 C90.5329701,10.3823529 91.5557443,11.3993529 91.5557443,12.6495348 L91.5557443,22.024262 C91.5557443,23.2744439 90.5329701,24.2914439 89.2756902,24.2914439 L89.0872627,24.2914439 L89.0872627,27.5641711 C89.0872627,27.8947166 88.8864929,28.1933529 88.5795784,28.3201711 C88.4775478,28.3618984 88.3705803,28.3823529 88.2644356,28.3823529" id="Shape"></path>
                </g>
            </g>
        </g>
    </g>
</svg>