<?xml version="1.0" encoding="UTF-8"?>
<svg width="16px" height="21px" viewBox="0 0 16 21" version="1.1" xmlns="http://www.w3.org/2000/svg" xmlns:xlink="http://www.w3.org/1999/xlink">
    <!-- Generator: Sketch 47.1 (45422) - http://www.bohemiancoding.com/sketch -->
    <title>Shape</title>
    <desc>Created with Sketch.</desc>
    <defs></defs>
    <g id="SYMBOLS" stroke="none" stroke-width="1" fill="none" fill-rule="evenodd">
        <g id="Reaction" transform="translate(-396.000000, -6.000000)" fill-rule="nonzero" fill="#FF5C3E">
            <g id="like_button">
                <g transform="translate(326.000000, 0.000000)">
                    <g id="flamme_like" transform="translate(70.000000, 6.000000)">
                        <path d="M13.0880198,8.02924534 C12.4368226,7.53794243 11.8152611,7.01166623 11.3009648,6.39987314 C8.37569168,2.92026999 9.89130522,0 9.89130522,0 C4.46064083,2.08139004 3.22381206,5.38516855 3.16506532,7.84551578 L3.1679502,7.87162598 C3.1679502,7.87162598 3.21699325,9.32804805 3.94267289,10.9075953 C4.17425045,11.411594 3.79475698,11.9778739 3.20256882,12.0562045 C2.79029257,12.1108203 2.3906049,11.9103227 2.21646277,11.564662 C1.90489521,10.9466408 1.49340575,9.96379546 1.61168602,9.27055771 C0.716847226,10.3535321 0.137247656,11.6796427 0.020540955,13.1518746 C-0.26689847,16.7821504 2.49262491,20.1024574 6.39875885,20.8239612 C10.9765464,21.6697879 15.3112169,18.8038942 15.9270086,14.6447073 C16.3114851,12.0466228 15.1496633,9.58435918 13.0880198,8.02924534 Z M8.15040841,16.9031197 C6.79005412,16.9031197 5.60698912,16.2141937 4.99381998,15.1978123 C5.41239053,15.3532758 5.86925137,15.440709 6.34919128,15.440709 C8.33871271,15.440709 9.95162554,13.9675189 9.95162554,12.1503449 C9.95162554,11.5754415 9.78954747,11.0355113 9.50577971,10.5652882 C10.823123,11.0546748 11.7528427,12.2337059 11.7528427,13.6127556 C11.7528427,15.4299296 10.1399298,16.9031197 8.15040841,16.9031197 Z" id="Shape"></path>
                    </g>
                </g>
            </g>
        </g>
    </g>
</svg>