<?xml version="1.0" encoding="UTF-8"?>
<svg width="26px" height="18px" viewBox="0 0 26 18" version="1.1" xmlns="http://www.w3.org/2000/svg" xmlns:xlink="http://www.w3.org/1999/xlink">
    <!-- Generator: Sketch 47.1 (45422) - http://www.bohemiancoding.com/sketch -->
    <title>Shapeshare</title>
    <desc>Created with Sketch.</desc>
    <defs></defs>
    <g id="SYMBOLS" stroke="none" stroke-width="1" fill="none" fill-rule="evenodd">
        <g id="Reaction" transform="translate(-68.000000, -10.000000)" fill-rule="nonzero" fill="#FC3574">
            <g id="share_button">
                <g>
                    <path d="M92.5327163,17.6682839 L83.4249536,10.790791 C83.2290878,10.6454919 83.0332219,10.5970588 82.8373561,10.5970588 C82.3476914,10.5970588 81.8580267,10.9845232 81.8580267,11.5657198 L81.8580267,15.4403637 C81.3683621,15.4403637 80.8786974,15.4403637 79.4097034,15.4403637 C72.3585323,15.4403637 69.4205444,19.799338 68.6370809,26.5315318 C68.539148,27.1611614 69.0777791,27.5970588 69.6164102,27.5970588 C69.910209,27.5970588 70.2040078,27.4517597 70.4488402,27.1611614 C72.7992305,23.8677141 75.3454868,22.2209904 79.8993681,22.2209904 C80.8297309,22.2209904 81.4173285,22.2209904 81.9069932,22.2209904 L81.9069932,26.0472013 C81.9069932,26.6283979 82.3966579,27.0158622 82.8863225,27.0158622 C83.0821884,27.0158622 83.2780542,26.9674292 83.4739201,26.82213 L92.5816828,19.9446372 C93.3161798,19.4118736 93.3161798,18.2494805 92.5327163,17.6682839 Z" id="Shape"></path>
                </g>
            </g>
        </g>
    </g>
</svg>