<?xml version="1.0" encoding="UTF-8"?>
<svg width="20px" height="14px" viewBox="0 0 20 14" version="1.1" xmlns="http://www.w3.org/2000/svg" xmlns:xlink="http://www.w3.org/1999/xlink">
    <!-- Generator: Sketch 47.1 (45422) - http://www.bohemiancoding.com/sketch -->
    <title>ic/supervisor_account/grey600</title>
    <desc>Created with Sketch.</desc>
    <defs></defs>
    <g id="Symbols" stroke="none" stroke-width="1" fill="none" fill-rule="evenodd">
        <g id="burger/closed" transform="translate(-54.000000, -222.000000)">
            <g id="Nav-Burger">
                <g id="ic/supervisor_account/grey600" transform="translate(52.000000, 217.000000)">
                    <g id="ic_supervisor_account_24px">
                        <polygon id="Shape" points="0 0 24 0 24 24 0 24"></polygon>
                        <path d="M16.50501,12 C17.8877756,12 19,10.88 19,9.5 C19,8.12 17.8877756,7 16.50501,7 C15.1222445,7 14,8.12 14,9.5 C14,10.88 15.1222445,12 16.50501,12 Z M9.00500835,11 C10.6677796,11 12,9.66 12,8 C12,6.34 10.6677796,5 9.00500835,5 C7.34223706,5 6,6.34 6,8 C6,9.66 7.34223706,11 9.00500835,11 Z M16.5,14 C14.67,14 11,14.92 11,16.75 L11,19 L22,19 L22,16.75 C22,14.92 18.33,14 16.5,14 Z M8.72358591,13 C6.48559232,13 2,14.17 2,16.5 L2,19 L8.72358591,19 L8.72358591,16.75 C8.72358591,15.9 9.04055496,14.41 11,13.28 C10.1643543,13.1 9.35752401,13 8.72358591,13 Z" id="Shape" fill="#FFFFFF" fill-rule="nonzero"></path>
                    </g>
                </g>
            </g>
        </g>
    </g>
</svg>