<?xml version="1.0" encoding="UTF-8"?>
<svg width="26px" height="27px" viewBox="0 0 26 27" version="1.1" xmlns="http://www.w3.org/2000/svg" xmlns:xlink="http://www.w3.org/1999/xlink">
    <g stroke="none" stroke-width="1" fill="none" fill-rule="evenodd">
        <g transform="translate(-1400.000000, -107.000000)" fill-rule="nonzero" fill="#404258">
            <g transform="translate(1400.000000, 107.000000)">
                <path d="M13,0.192857143 C20.0571429,0.192857143 25.8142857,6.17142857 25.8142857,13.5 C25.8142857,20.8285714 20.0571429,26.8071429 13,26.8071429 C5.94285714,26.8071429 0.185714286,20.8285714 0.185714286,13.5 C0.185714286,6.17142857 5.94285714,0.192857143 13,0.192857143 Z M13,24.8785714 C19.0542857,24.8785714 23.9571429,19.7871429 23.9571429,13.5 C23.9571429,7.21285714 19.0542857,2.12142857 13,2.12142857 C6.94571429,2.12142857 2.04285714,7.21285714 2.04285714,13.5 C2.04285714,19.7871429 6.94571429,24.8785714 13,24.8785714 Z" id="Shape"></path>
                <g id="Group" transform="translate(11.885714, 5.785714)">
                    <rect id="Rectangle-path" x="0" y="4.32" width="2.22857143" height="10.8"></rect>
                    <rect id="Rectangle-path" x="0" y="0.27" width="2.22857143" height="2.7"></rect>
                </g>
            </g>
        </g>
    </g>
</svg>
