<?xml version="1.0" encoding="UTF-8"?>
<svg width="133px" height="29px" viewBox="0 0 133 29" version="1.1" xmlns="http://www.w3.org/2000/svg" xmlns:xlink="http://www.w3.org/1999/xlink">
    <!-- Generator: Sketch 47.1 (45422) - http://www.bohemiancoding.com/sketch -->
    <title>AGORA_LOGO-02</title>
    <desc>Created with Sketch.</desc>
    <defs></defs>
    <g id="Symbols" stroke="none" stroke-width="1" fill="none" fill-rule="evenodd">
        <g id="Header-top" transform="translate(-187.000000, -39.000000)" fill="#E2614C">
            <g id="AGORA_LOGO-02">
                <g transform="translate(187.000000, 39.000000)">
                    <path d="M43.32679,17.4871123 C44.2902655,16.8421335 45.0426388,15.9558605 45.5842317,14.827966 C46.125181,13.699744 46.3961384,12.4241919 46.3961384,11 C46.3961384,9.60363712 46.125181,8.34052622 45.5842317,7.2123043 C45.0426388,6.08440979 44.2902655,5.19126138 43.32679,4.5328591 C42.362671,3.87478421 41.2604988,3.54574677 40.0196299,3.54574677 C38.7784393,3.54574677 37.6765889,3.8679088 36.7127916,4.51288767 C35.7486726,5.15753914 34.9966211,6.04381213 34.45535,7.17203405 C33.9140788,8.30025597 33.6434433,9.57646288 33.6434433,11 C33.6434433,12.4241919 33.9140788,13.699744 34.45535,14.827966 C34.9966211,15.9558605 35.7486726,16.8421335 36.7127916,17.4871123 C37.6765889,18.1317638 38.7784393,18.4542532 40.0196299,18.4542532 C41.2604988,18.4542532 42.362671,18.1317638 43.32679,17.4871123 Z M49.4654867,0.745490803 C49.8217216,1.10792309 50,1.58527293 50,2.17590333 L50,19.6630157 C50,20.2006072 49.8217216,20.6570034 49.4654867,21.0328591 C49.10893,21.4093696 48.6532582,21.5969701 48.099115,21.5969701 C47.54465,21.5969701 47.0954143,21.4155902 46.7523733,21.0528305 C46.4090105,20.6903982 46.2378117,20.2271266 46.2378117,19.6630157 L46.2378117,18.6150068 C45.5507643,19.5559557 44.6139984,20.3548128 43.4255833,21.0125603 C42.2374899,21.6706352 40.9567176,22 39.5839099,22 C37.7882542,22 36.1583266,21.5301804 34.6931617,20.5895589 C33.227675,19.6499196 32.0794851,18.3403179 31.2476267,16.661081 C30.4160901,14.982499 30,13.0953628 30,11 C30,8.90463718 30.4160901,7.01782844 31.2476267,5.33891898 C32.0794851,3.66033692 33.2209171,2.35073516 34.67321,1.4101137 C36.125181,0.470474433 37.7229284,0 39.4654867,0 C40.8643604,0 42.1644409,0.295969998 43.3663717,0.886600393 C44.5673371,1.47755819 45.5246983,2.2299244 46.2378117,3.14271683 L46.2378117,2.17590333 C46.2378117,1.61179237 46.4090105,1.14197274 46.7523733,0.76546223 C47.0954143,0.389606524 47.54465,0.201351271 48.099115,0.201351271 C48.6532582,0.201351271 49.10893,0.382731115 49.4654867,0.745490803 L49.4654867,0.745490803 Z" id="Fill-1"></path>
                    <path d="M66.3589547,17.1200499 C67.3368523,16.5034169 68.1026683,15.6364168 68.6564025,14.51969 C69.2095092,13.4032833 69.4865331,12.1495269 69.4865331,10.75682 C69.4865331,9.36475342 69.2095092,8.11675996 68.6564025,7.01347995 C68.1026683,5.91019994 67.3368523,5.04352002 66.3589547,4.41312004 C65.3804295,3.78239989 64.2610394,3.46735998 62.9998431,3.46735998 C61.7643728,3.46735998 60.6575319,3.78239989 59.6793205,4.41312004 C58.7007953,5.04352002 57.9352931,5.91692335 57.3821864,7.03333002 C56.8284522,8.15005686 56.5520557,9.39132691 56.5520557,10.75682 C56.5520557,12.1229534 56.8284522,13.3639033 57.3821864,14.48031 C57.9352931,15.5970368 58.7007953,16.4697998 59.6793205,17.10052 C60.6575319,17.73092 61.7643728,18.04628 62.9998431,18.04628 C64.2610394,18.04628 65.3804295,17.7376434 66.3589547,17.1200499 Z M72.4788938,0.729010035 C72.8265071,1.08342993 73,1.55022687 73,2.12780004 L73,19.4646 C73,21.5924 72.5560715,23.3718632 71.6679007,24.80363 C70.7800436,26.2350766 69.57626,27.2922532 68.0581186,27.97548 C66.5387222,28.6580664 64.8273228,29 62.9226655,29 C61.8930022,29 60.6892187,28.8155864 59.3128833,28.44836 C57.9352931,28.0801731 57.0540244,27.6994999 56.6678222,27.3057 C55.8696921,26.8850065 55.4709407,26.3602601 55.4709407,25.72954 C55.4709407,25.57202 55.5220788,25.3613531 55.6256098,25.09914 C55.9082809,24.4421665 56.3845237,24.1139999 57.0540244,24.1139999 C57.3881473,24.1139999 57.7489372,24.1927599 58.1351394,24.3502799 C60.1941521,25.164133 61.8029616,25.57202 62.9612543,25.57202 C65.020267,25.57202 66.5967623,25.0661632 67.691054,24.0547699 C68.7847182,23.0433765 69.3321778,21.6577132 69.3321778,19.8981 L69.3321778,17.7703 C68.7916203,18.79482 67.8843119,19.6752669 66.609939,20.41036 C65.3358798,21.145133 63.9906038,21.51364 62.5750522,21.51364 C60.7990243,21.51364 59.1773518,21.0542068 57.7103484,20.1343799 C56.2430313,19.2155135 55.0910132,17.9348635 54.2546079,16.29275 C53.4178889,14.6512768 53,12.8058601 53,10.75682 C53,8.70777995 53.4178889,6.8626834 54.2546079,5.22089005 C55.0910132,3.57941686 56.2364429,2.29876682 57.6912108,1.37893993 C59.1450376,0.460073527 60.7472588,0 62.4978745,0 C63.9134261,0 65.2326625,0.328806898 66.4555836,0.985140043 C67.6778773,1.64179335 68.6369512,2.44283995 69.3321778,3.38860001 L69.3321778,2.12780004 C69.3321778,1.57616004 69.4990823,1.11672684 69.8341464,0.748539949 C70.1682693,0.380993387 70.606237,0.196899944 71.1467945,0.196899944 C71.687352,0.196899944 72.1312805,0.374269974 72.4788938,0.729010035 L72.4788938,0.729010035 Z" id="Fill-2"></path>
                    <path d="M92.3265466,7.15206262 C91.7302862,6.01041729 90.9210526,5.12414429 89.9007849,4.49258884 C88.8795476,3.8616882 87.7458449,3.54574677 86.5,3.54574677 C85.2535088,3.54574677 84.1198061,3.8616882 83.0995383,4.49258884 C82.078301,5.12414429 81.2700369,6.01041729 80.6731302,7.15206262 C80.0765466,8.29403536 79.7782548,9.5898863 79.7782548,11.0402703 C79.7782548,12.4644622 80.0765466,13.7396869 80.6731302,14.8682362 C81.2700369,15.9961307 82.078301,16.8765105 83.0995383,17.5070838 C84.1198061,18.1386392 85.2535088,18.4542532 86.5,18.4542532 C87.7458449,18.4542532 88.8795476,18.1386392 89.9007849,17.5070838 C90.9210526,16.8765105 91.7302862,15.9961307 92.3265466,14.8682362 C92.9234534,13.7396869 93.2217452,12.4644622 93.2217452,11.0402703 C93.2217452,9.5898863 92.9234534,8.29403536 92.3265466,7.15206262 Z M95.6080794,16.6813798 C94.6795937,18.3471933 93.4137119,19.6499196 91.8097876,20.5895589 C90.2048938,21.5301804 88.4351801,22 86.5,22 C84.5641736,22 82.7944598,21.5301804 81.1902124,20.5895589 C79.5856417,19.6499196 78.3197599,18.3471933 77.3922438,16.6813798 C76.4634349,15.0158938 76,13.1356331 76,11.0402703 C76,8.94490743 76.4634349,7.05122329 77.3922438,5.35889041 C78.3197599,3.66655753 79.5856417,2.35073516 81.1902124,1.4101137 C82.7944598,0.470474433 84.5641736,0 86.5,0 C88.4351801,0 90.2048938,0.470474433 91.8097876,1.4101137 C93.4137119,2.35073516 94.6795937,3.66655753 95.6080794,5.35889041 C96.5355956,7.05122329 97,8.94490743 97,11.0402703 C97,13.1356331 96.5355956,15.0158938 95.6080794,16.6813798 L95.6080794,16.6813798 Z" id="Fill-3"></path>
                    <path d="M112.240112,0.528780414 C112.746162,0.881512924 113,1.31924505 113,1.8413401 C113,2.46817252 112.833267,2.94506178 112.500125,3.27137118 C112.166333,3.59831729 111.760063,3.76099447 111.280014,3.76099447 C111.040152,3.76099447 110.680034,3.68268021 110.20031,3.52605169 C109.639982,3.34363678 109.200235,3.25195179 108.880094,3.25195179 C108.053253,3.25195179 107.246237,3.53273706 106.460023,4.09430759 C105.673159,4.65619647 105.033202,5.42628667 104.540152,6.40585159 C104.046452,7.38509816 103.80009,8.4760858 103.80009,9.67722277 L103.80009,19.1195028 C103.80009,19.6422345 103.620356,20.0860153 103.260238,20.4514818 C102.90012,20.8175851 102.440222,21 101.880219,21 C101.320216,21 100.866493,20.8236337 100.520351,20.4709012 C100.173559,20.1184871 100,19.6680209 100,19.1195028 L100,2.35070113 C100,1.82860608 100.180384,1.38482529 100.540177,1.01872205 C100.900295,0.653255514 101.346542,0.470203896 101.880219,0.470203896 C102.440222,0.470203896 102.90012,0.653255514 103.260238,1.01872205 C103.620356,1.38482529 103.80009,1.82860608 103.80009,2.35070113 L103.80009,4.3489881 C104.386419,3.06953688 105.266238,2.03107709 106.440197,1.23424543 C107.613181,0.437732131 108.946397,0.0264231032 110.439847,0 C111.133107,0 111.733087,0.176366255 112.240112,0.528780414" id="Fill-4"></path>
                    <path d="M126.326683,17.4871123 C127.290174,16.8421335 128.042559,15.9558605 128.584161,14.827966 C129.125119,13.699744 129.39608,12.4241919 129.39608,11 C129.39608,9.60363712 129.125119,8.34052622 128.584161,7.2123043 C128.042559,6.08440979 127.290174,5.19126138 126.326683,4.5328591 C125.362548,3.87478421 124.260358,3.54574677 123.019791,3.54574677 C121.778581,3.54574677 120.676391,3.8679088 119.712578,4.51288767 C118.748765,5.15753914 117.99638,6.04381213 117.455422,7.17203405 C116.91382,8.30025597 116.643502,9.57646288 116.643502,11 C116.643502,12.4241919 116.91382,13.699744 117.455422,14.827966 C117.99638,15.9558605 118.748765,16.8421335 119.712578,17.4871123 C120.676391,18.1317638 121.778581,18.4542532 123.019791,18.4542532 C124.260358,18.4542532 125.362548,18.1317638 126.326683,17.4871123 Z M132.465478,0.745490803 C132.821719,1.10792309 133,1.58527293 133,2.17590333 L133,19.6630157 C133,20.2006072 132.821719,20.6570034 132.465478,21.0328591 C132.108916,21.4093696 131.653558,21.5969701 131.099084,21.5969701 C130.544611,21.5969701 130.095368,21.4155902 129.752321,21.0528305 C129.408953,20.6903982 129.237751,20.2271266 129.237751,19.6630157 L129.237751,18.6150068 C128.550693,19.5559557 127.613912,20.3548128 126.425799,21.0125603 C125.237687,21.6706352 123.956572,22 122.584064,22 C120.788058,22 119.158426,21.5301804 117.692915,20.5895589 C116.227405,19.6499196 115.079197,18.3403179 114.247325,16.661081 C113.415775,14.982499 113,13.0953628 113,11 C113,8.90463718 113.415775,7.01782844 114.247325,5.33891898 C115.079197,3.66033692 116.220969,2.35073516 117.672963,1.4101137 C119.124958,0.470474433 120.722731,0 122.465317,0 C123.864535,0 125.164637,0.295969998 126.366265,0.886600393 C127.56725,1.47755819 128.524626,2.2299244 129.237751,3.14271683 L129.237751,2.17590333 C129.237751,1.61179237 129.408953,1.14197274 129.752321,0.76546223 C130.095368,0.389606524 130.544611,0.201351271 131.099084,0.201351271 C131.653558,0.201351271 132.108916,0.382731115 132.465478,0.745490803 L132.465478,0.745490803 Z" id="Fill-5"></path>
                    <path d="M21.835443,10 L3.16455696,10 C1.42405063,10 0,8.72575393 0,7.16834206 L0,6.83165794 C0,5.27424607 1.42405063,4 3.16455696,4 L21.835443,4 C23.5759494,4 25,5.27424607 25,6.83165794 L25,7.16834206 C25,8.72575393 23.5759494,10 21.835443,10" id="Fill-6"></path>
                    <path d="M13.7724787,18 L3.22752126,18 C1.45238457,18 0,16.7258141 0,15.1684757 L0,14.8315243 C0,13.2741859 1.45238457,12 3.22752126,12 L13.7724787,12 C15.5476154,12 17,13.2741859 17,14.8315243 L17,15.1684757 C17,16.7258141 15.5476154,18 13.7724787,18" id="Fill-7"></path>
                    <path d="M22.1684757,18 L21.8315243,18 C20.2741859,18 19,16.7258141 19,15.1684757 L19,14.8315243 C19,13.2741859 20.2741859,12 21.8315243,12 L22.1684757,12 C23.7258141,12 25,13.2741859 25,14.8315243 L25,15.1684757 C25,16.7258141 23.7258141,18 22.1684757,18" id="Fill-8"></path>
                </g>
            </g>
        </g>
    </g>
</svg>