<svg id="Calque_1" data-name="Calque 1" xmlns="http://www.w3.org/2000/svg" viewBox="0 0 100 100.16"><defs><style>.cls-1{fill:#ff1c48;}</style></defs><title>Plan de travail 1</title><path class="cls-1" d="M81.34,59.92V46.24A31.4,31.4,0,0,0,63.11,17.81V16.18A13.32,13.32,0,0,0,50.89,2.77,13.12,13.12,0,0,0,36.92,15q0,.43,0,.87v2A31.42,31.42,0,0,0,18.66,46.26V59.92l-6.58,7.33a9.9,9.9,0,0,0,7.37,16.52H33.79a16.49,16.49,0,0,0,32.42,0H80.56a9.9,9.9,0,0,0,7.37-16.52ZM50,89.26a8.51,8.51,0,0,1-7.94-5.49H57.94A8.51,8.51,0,0,1,50,89.26ZM80.56,75.77H19.44A1.9,1.9,0,0,1,18,72.6l7.6-8.47a4,4,0,0,0,1-2.67V46.26a23.4,23.4,0,0,1,15.57-22,4,4,0,0,0,2.66-3.77V15.86a5.12,5.12,0,0,1,5.12-5.12h.41a5.37,5.37,0,0,1,4.76,5.42v4.31a4,4,0,0,0,2.66,3.77,23.39,23.39,0,0,1,15.57,22V61.45a4,4,0,0,0,1,2.67L82,72.6a1.9,1.9,0,0,1-1.41,3.17Z"/></svg>