<?xml version="1.0" encoding="UTF-8"?>
<svg width="15px" height="15px" viewBox="0 0 15 15" version="1.1" xmlns="http://www.w3.org/2000/svg" xmlns:xlink="http://www.w3.org/1999/xlink">
    <!-- Generator: Sketch 47.1 (45422) - http://www.bohemiancoding.com/sketch -->
    <title>search icon</title>
    <desc>Created with Sketch.</desc>
    <defs></defs>
    <g id="SYMBOLS" stroke="none" stroke-width="1" fill="none" fill-rule="evenodd">
        <g id="SEARCH/DESKTOP" transform="translate(-360.000000, -16.000000)" fill="#FFFFFF">
            <g id="Search">
                <path d="M370.049758,22.1450925 C370.049758,24.3011121 368.296284,26.0556058 366.141519,26.0556058 C363.986753,26.0556058 362.233279,24.3011121 362.233279,22.1450925 C362.233279,19.9890728 363.986753,18.2345791 366.141519,18.2345791 C368.296284,18.2345791 370.049758,19.9890728 370.049758,22.1450925 L370.049758,22.1450925 Z M375,29.4288116 L371.201292,25.6278934 C371.907916,24.606621 372.283037,23.3845855 372.283037,22.1450925 C372.283037,18.7495797 369.535057,16 366.141519,16 C362.747981,16 360,18.7495797 360,22.1450925 C360,25.5406052 362.747981,28.2901849 366.141519,28.2901849 C367.380291,28.2901849 368.601616,27.9148455 369.622294,27.2078107 L373.421002,31 L375,29.4288116 Z" id="search-icon"></path>
            </g>
        </g>
    </g>
</svg>