<?xml version="1.0" encoding="UTF-8"?>
<svg width="25px" height="21px" viewBox="0 0 25 21" version="1.1" xmlns="http://www.w3.org/2000/svg" xmlns:xlink="http://www.w3.org/1999/xlink">
    <!-- Generator: Sketch 49.1 (51147) - http://www.bohemiancoding.com/sketch -->
    <title>Shape</title>
    <desc>Created with Sketch.</desc>
    <defs></defs>
    <g id="Symbols" stroke="none" stroke-width="1" fill="none" fill-rule="evenodd">
        <g id="SEARCH/DESKTOP/FEED" transform="translate(-820.000000, -16.000000)" fill="#FFFFFF" fill-rule="nonzero">
            <g id="Search">
                <g id="Group" transform="translate(804.000000, 0.000000)">
                    <g id="noun_383448_cc" transform="translate(16.000000, 16.000000)">
                        <g id="Group" transform="translate(0.000000, 0.172722)">
                            <path d="M0.727776688,0.0980785714 C0.466740262,0.125530489 0.235045158,0.277395782 0.105725975,0.505803689 C-0.0235932081,0.734211597 -0.0346046439,1.01102279 0.0761626766,1.24898124 L4.25664737,10.3885024 L0.0761626766,19.5280236 C-0.0591107779,19.8311378 0.00360020893,20.1860573 0.234555059,20.4244623 C0.465509908,20.6628674 0.818260358,20.7368112 1.12551511,20.6112261 L23.7204425,11.1924418 C23.7375488,11.1873593 23.754483,11.1817145 23.7712176,11.1755168 L23.7966052,11.1670542 C24.127651,11.0692626 24.3607665,10.772969 24.3779094,10.4282073 C24.3950522,10.0834455 24.1924796,9.76548793 23.8727679,9.63533819 L1.12551511,0.157316209 C0.99999371,0.104554918 0.863225382,0.0841851669 0.727776688,0.0980785714 Z M2.40335557,2.45065903 L19.5061077,9.57610055 L5.66142563,9.57610055 L2.40335557,2.45065903 Z M5.66142563,11.2009043 L19.4891827,11.2009043 L2.41181809,18.3178833 L5.66142563,11.2009043 Z" id="Shape"></path>
                        </g>
                    </g>
                </g>
            </g>
        </g>
    </g>
</svg>